<svg width="76" height="76" viewBox="0 0 76 76" fill="none" xmlns="http://www.w3.org/2000/svg">
<circle cx="38" cy="38" r="38" fill="#F2EFFF"/>
<path d="M55.629 14H20.7581C20.557 14 20.3642 14.0799 20.222 14.222C20.0799 14.3642 20 14.557 20 14.7581V57.2097C20 57.4107 20.0799 57.6035 20.222 57.7457C20.3642 57.8879 20.557 57.9677 20.7581 57.9677H22.441L23.055 60.4261C23.0961 60.5901 23.1907 60.7356 23.324 60.8396C23.4572 60.9435 23.6213 61 23.7903 61H26.8226C26.9916 61 27.1557 60.9435 27.2889 60.8396C27.4222 60.7356 27.5168 60.5901 27.5579 60.4261L28.1719 57.9677H48.2152L48.8292 60.4261C48.8703 60.5901 48.9649 60.7356 49.0981 60.8396C49.2314 60.9435 49.3955 61 49.5645 61H52.5968C52.7658 61 52.9299 60.9435 53.0631 60.8396C53.1964 60.7356 53.291 60.5901 53.3321 60.4261L53.9461 57.9677H55.629C55.8301 57.9677 56.0229 57.8879 56.1651 57.7457C56.3072 57.6035 56.3871 57.4107 56.3871 57.2097V14.7581C56.3871 14.557 56.3072 14.3642 56.1651 14.222C56.0229 14.0799 55.8301 14 55.629 14ZM54.871 45.8387H38.9516V15.5161H54.871V45.8387ZM37.4355 15.5161V45.8387H21.5161V15.5161H37.4355ZM26.2305 59.4839H24.3824L24.0033 57.9677H26.6096L26.2305 59.4839ZM52.0047 59.4839H50.1566L49.7775 57.9677H52.3838L52.0047 59.4839ZM21.5161 56.4516V47.3548H54.871V56.4516H21.5161Z" fill="#4C42E8"/>
<path d="M35.1613 51.1451H41.2258V52.6613H35.1613V51.1451ZM40.4677 28.4032H41.9838V32.9516H40.4677V28.4032ZM34.4032 28.4032H35.9193V32.9516H34.4032V28.4032ZM51.8387 20.8225H53.3548V17.7903C53.3548 17.5892 53.2749 17.3964 53.1328 17.2543C52.9906 17.1121 52.7978 17.0322 52.5967 17.0322H49.5645V18.5484H51.8387V20.8225ZM24.5484 18.5484H26.8225V17.0322H23.7903C23.5892 17.0322 23.3964 17.1121 23.2543 17.2543C23.1121 17.3964 23.0322 17.5892 23.0322 17.7903V20.8225H24.5484V18.5484ZM53.3548 43.5645V40.5322H51.8387V42.8064H49.5645V44.3225H52.5967C52.7978 44.3225 52.9906 44.2427 53.1328 44.1005C53.2749 43.9584 53.3548 43.7655 53.3548 43.5645ZM23.7903 44.3225H26.8225V42.8064H24.5484V40.5322H23.0322V43.5645C23.0322 43.7655 23.1121 43.9584 23.2543 44.1005C23.3964 44.2427 23.5892 44.3225 23.7903 44.3225ZM46.5322 17.0322H48.0484V18.5484H46.5322V17.0322Z" fill="#4C42E8"/>
</svg>
